<?xml version="1.0" encoding="UTF-8" ?>
<!DOCTYPE svg PUBLIC "-//W3C//DTD SVG 1.1//EN" "http://www.w3.org/Graphics/SVG/1.1/DTD/svg11.dtd">
<svg width="656pt" height="134pt" viewBox="0 0 656 134" version="1.1" xmlns="http://www.w3.org/2000/svg">
<g id="#ffffffff">
</g>
<g id="#daae77ff">
<path fill="#daae77" opacity="1.00" d=" M 15.37 8.44 C 19.25 7.83 22.97 9.77 25.97 12.04 C 31.44 16.29 35.24 22.21 39.06 27.89 C 41.72 31.73 43.01 36.38 45.89 40.07 C 58.21 44.54 72.06 44.35 84.56 40.58 C 86.44 40.21 87.06 38.24 87.83 36.75 C 91.57 28.15 96.96 20.22 103.75 13.75 C 106.57 11.07 110.03 8.69 114.00 8.33 C 119.37 7.86 124.19 13.28 123.44 18.53 C 122.96 22.27 120.82 25.57 118.20 28.19 C 111.75 34.71 104.13 40.11 95.72 43.78 C 93.70 44.63 91.53 45.78 91.12 48.17 C 87.67 59.76 87.69 72.44 91.06 84.05 C 91.57 87.34 95.20 88.07 97.68 89.40 C 105.58 92.93 112.44 98.38 118.53 104.46 C 121.16 107.16 122.87 110.71 123.56 114.40 C 124.22 118.14 121.14 121.39 118.08 123.03 C 113.38 125.09 108.16 122.53 104.67 119.32 C 97.26 112.43 91.05 104.07 87.36 94.61 C 86.89 92.79 85.34 91.78 83.61 91.36 C 71.64 88.14 58.65 87.60 46.86 91.87 C 44.58 92.53 44.05 95.17 42.99 97.00 C 39.66 104.77 34.48 111.60 28.69 117.71 C 25.61 120.91 21.66 123.85 17.00 123.77 C 13.13 124.05 9.68 121.13 8.38 117.65 C 7.35 113.71 8.87 109.44 11.40 106.37 C 17.78 98.88 25.86 92.91 34.86 88.92 C 36.95 87.80 39.91 87.15 40.28 84.38 C 44.15 71.85 44.01 57.92 39.47 45.58 C 31.09 42.27 23.22 37.56 16.70 31.29 C 13.06 27.85 8.95 24.13 8.15 18.91 C 7.22 14.22 10.63 9.17 15.37 8.44 M 15.04 16.04 C 15.15 18.41 15.81 20.77 17.64 22.39 C 22.71 27.39 28.06 32.50 34.84 35.06 C 31.92 28.77 27.57 23.22 22.62 18.41 C 20.65 16.36 17.83 15.46 15.04 16.04 M 109.28 18.30 C 104.29 23.07 99.42 28.35 97.05 34.96 C 102.42 32.77 106.94 29.04 111.18 25.16 C 113.75 22.73 116.60 19.76 116.03 15.89 C 113.49 15.53 111.05 16.48 109.28 18.30 M 48.27 48.93 C 48.85 54.61 50.07 60.23 50.05 65.96 C 50.23 71.93 49.00 77.79 48.21 83.67 C 54.11 82.89 60.01 81.75 66.00 81.91 C 71.93 81.84 77.76 82.98 83.60 83.87 C 82.52 78.50 81.48 73.09 81.48 67.59 C 81.27 61.29 82.73 55.11 83.05 48.84 C 77.03 49.27 71.08 50.65 65.02 50.40 C 59.38 50.51 53.89 48.93 48.27 48.93 M 96.01 96.26 C 97.89 100.11 100.06 103.85 102.89 107.10 C 106.28 111.04 109.52 115.78 114.90 117.06 C 117.01 114.90 115.87 111.84 114.06 109.90 C 108.95 104.29 102.67 99.86 96.01 96.26 M 16.43 111.43 C 15.14 112.83 15.38 114.76 15.51 116.50 C 18.04 117.07 20.45 116.01 22.19 114.19 C 27.20 109.15 32.10 103.71 34.78 97.03 C 27.71 100.41 21.31 105.28 16.43 111.43 Z" />
</g>
<g id="#020202ff">
<path fill="#020202" opacity="1.00" d=" M 410.73 12.72 C 414.71 7.96 422.75 7.42 427.23 11.77 C 430.91 15.50 432.36 20.90 432.46 26.02 C 432.63 39.68 430.44 53.49 425.16 66.13 C 424.63 67.80 423.60 69.69 424.65 71.37 C 427.75 78.17 432.20 84.24 437.16 89.80 C 439.18 91.59 439.13 94.26 438.74 96.72 C 436.52 97.06 433.63 98.21 432.04 95.92 C 427.28 90.49 423.03 84.57 419.60 78.20 C 415.50 84.79 411.51 91.65 405.60 96.80 C 403.11 98.79 398.83 96.25 399.88 93.04 C 401.78 88.86 405.59 85.89 408.01 81.99 C 410.43 78.12 413.44 74.42 414.72 69.98 C 414.56 67.43 413.21 65.14 412.43 62.74 C 408.01 50.37 405.94 37.13 406.64 24.00 C 406.92 19.97 408.18 15.90 410.73 12.72 M 416.56 17.46 C 413.25 22.61 414.01 29.01 414.33 34.81 C 415.15 43.00 416.05 51.51 419.64 59.00 C 423.65 48.17 425.16 36.48 424.70 24.97 C 424.59 22.41 424.06 19.67 422.20 17.77 C 420.87 16.00 418.19 16.31 416.56 17.46 Z" />
<path fill="#020202" opacity="1.00" d=" M 484.13 10.24 C 488.33 8.16 493.92 8.32 497.59 11.45 C 500.75 14.02 502.17 18.13 502.72 22.04 C 504.09 37.54 501.10 53.19 495.35 67.58 C 494.04 69.92 495.58 72.26 496.70 74.31 C 499.72 79.47 503.10 84.45 507.01 88.98 C 508.12 90.49 509.78 91.95 509.72 93.99 C 510.20 97.17 505.54 98.55 503.54 96.57 C 498.06 91.44 494.53 84.70 490.02 78.79 C 485.78 84.59 482.46 91.17 477.09 96.07 C 475.27 98.11 471.38 97.69 470.62 94.88 C 470.01 92.56 471.80 90.71 473.09 89.03 C 477.57 83.66 481.82 78.00 484.85 71.67 C 486.10 69.78 484.81 67.69 484.21 65.83 C 478.91 52.91 476.77 38.86 477.25 24.94 C 477.13 19.37 479.55 13.55 484.13 10.24 M 487.01 18.01 C 484.35 21.36 484.74 25.96 484.71 29.99 C 485.05 39.77 486.29 49.74 490.04 58.85 C 493.56 50.71 494.66 41.74 495.34 32.97 C 495.52 28.31 495.93 23.35 493.93 19.01 C 492.82 16.40 488.68 15.52 487.01 18.01 Z" />
<path fill="#020202" opacity="1.00" d=" M 449.43 30.36 C 451.30 29.63 454.57 29.26 455.33 31.66 C 455.99 33.90 455.97 36.32 455.54 38.60 C 454.72 42.16 448.21 41.66 448.30 37.81 C 448.14 35.34 447.79 32.44 449.43 30.36 Z" />
<path fill="#020202" opacity="1.00" d=" M 519.73 30.70 C 521.73 29.17 524.86 29.56 526.17 31.81 C 526.80 34.19 526.84 36.81 526.16 39.18 C 524.80 41.58 521.77 40.95 519.56 40.51 C 518.72 37.34 517.99 33.70 519.73 30.70 Z" />
<path fill="#020202" opacity="1.00" d=" M 163.36 66.98 C 163.23 56.37 173.54 47.30 183.99 48.32 C 191.24 48.66 198.05 53.63 200.69 60.36 C 201.51 62.25 200.48 64.13 199.75 65.84 C 197.99 65.54 195.49 66.52 194.47 64.58 C 192.50 61.57 190.75 57.97 187.01 56.86 C 180.67 54.02 172.34 58.14 171.28 65.12 C 170.76 70.05 170.84 75.05 171.19 79.98 C 171.90 88.02 182.55 92.65 189.04 88.05 C 191.78 86.33 192.92 83.19 194.76 80.68 C 196.28 79.24 198.62 79.77 200.26 80.69 C 201.43 82.70 201.10 85.19 200.03 87.17 C 196.47 93.97 188.67 98.33 180.97 97.40 C 173.75 97.12 167.38 91.98 164.64 85.44 C 162.47 79.56 163.38 73.11 163.36 66.98 Z" />
<path fill="#020202" opacity="1.00" d=" M 215.40 58.33 C 218.95 51.79 226.54 47.62 233.98 48.32 C 242.02 48.66 249.28 54.89 251.26 62.61 C 252.64 70.24 250.74 78.12 252.28 85.73 C 253.47 89.32 257.55 89.99 260.76 90.67 C 261.72 93.04 261.95 96.47 258.91 97.38 C 253.95 98.33 249.93 94.85 246.17 92.20 C 242.13 95.39 237.29 97.88 231.98 97.48 C 222.09 97.73 213.31 88.88 213.14 79.10 C 213.00 72.18 212.11 64.70 215.40 58.33 M 230.29 56.24 C 225.18 57.01 220.70 61.61 220.79 66.93 C 220.72 72.09 220.19 77.42 221.56 82.45 C 224.21 89.63 234.33 92.19 240.08 87.09 C 245.80 82.48 244.12 74.38 244.27 67.95 C 244.51 60.78 237.44 54.45 230.29 56.24 Z" />
<path fill="#020202" opacity="1.00" d=" M 277.63 49.62 C 286.02 46.73 296.81 48.08 302.72 55.23 C 304.66 57.31 304.74 60.27 303.83 62.83 C 302.30 63.07 300.71 63.72 299.17 63.23 C 296.95 61.29 295.84 58.03 292.83 57.10 C 288.17 55.54 282.48 55.25 278.28 58.18 C 275.48 59.92 275.40 65.02 278.73 66.25 C 285.52 69.94 294.07 68.82 300.44 73.59 C 306.91 77.28 307.59 87.33 302.22 92.24 C 296.52 98.10 287.56 98.15 280.05 96.79 C 274.24 95.74 268.48 91.30 267.99 85.09 C 267.94 82.19 271.28 80.62 273.72 81.92 C 275.86 84.22 276.85 87.91 280.17 88.86 C 284.14 90.10 288.49 90.30 292.55 89.35 C 295.33 88.52 298.47 86.29 298.20 83.04 C 297.02 78.62 291.80 77.79 288.00 76.90 C 281.42 75.68 273.68 74.44 269.91 68.18 C 266.16 61.28 270.38 52.12 277.63 49.62 Z" />
<path fill="#020202" opacity="1.00" d=" M 331.38 48.61 C 340.62 46.58 350.78 52.19 353.65 61.26 C 356.03 69.29 353.78 77.80 355.06 85.98 C 355.54 89.49 359.83 89.39 362.35 90.67 C 364.79 91.44 364.73 94.66 363.42 96.42 C 361.14 98.22 357.99 97.43 355.49 96.58 C 352.99 95.79 351.54 93.04 349.12 92.35 C 346.06 93.90 343.41 96.38 339.93 97.00 C 331.93 98.97 322.94 95.42 318.68 88.33 C 314.62 81.94 316.26 74.05 316.01 66.91 C 315.83 58.09 322.87 50.24 331.38 48.61 M 332.28 56.32 C 327.06 57.48 323.33 62.69 323.55 67.98 C 323.75 73.87 322.25 80.71 326.32 85.66 C 329.25 89.65 334.89 90.57 339.43 89.27 C 343.46 87.54 346.82 83.60 346.90 79.06 C 347.08 74.43 347.25 69.76 346.71 65.16 C 345.63 58.74 338.46 54.60 332.28 56.32 Z" />
<path fill="#020202" opacity="1.00" d=" M 450.48 48.48 C 452.88 47.54 456.01 49.23 455.69 52.02 C 455.94 63.01 455.46 74.02 455.86 85.00 C 455.75 88.71 459.90 89.35 462.51 90.55 C 465.88 91.29 465.21 97.05 461.96 97.32 C 454.97 98.46 447.91 92.09 448.26 85.02 C 448.22 74.66 448.32 64.29 448.22 53.93 C 448.23 51.95 448.14 49.21 450.48 48.48 Z" />
<path fill="#020202" opacity="1.00" d=" M 520.38 48.26 C 522.63 48.30 526.22 48.17 526.45 51.21 C 526.93 62.78 526.20 74.40 526.73 85.96 C 527.20 89.60 531.65 89.43 534.20 90.88 C 535.90 92.75 535.59 96.55 532.87 97.26 C 528.81 98.10 524.55 96.19 521.77 93.27 C 518.76 89.95 518.64 85.22 518.68 80.99 C 518.79 71.98 518.64 62.96 518.73 53.95 C 518.62 51.90 519.45 50.02 520.38 48.26 Z" />
<path fill="#020202" opacity="1.00" d=" M 545.66 62.57 C 547.99 54.33 556.20 47.71 564.94 48.31 C 573.72 48.23 581.92 55.05 583.38 63.71 C 584.43 71.04 582.99 78.52 584.16 85.84 C 584.97 89.58 589.49 89.46 592.28 90.87 C 594.41 92.57 593.20 95.49 592.00 97.35 C 588.76 97.45 585.15 97.59 582.51 95.38 C 580.99 94.47 579.84 92.74 578.09 92.37 C 574.24 95.14 569.92 97.55 565.02 97.48 C 555.03 98.21 545.74 89.78 545.16 79.86 C 544.93 74.11 544.54 68.25 545.66 62.57 M 560.41 56.55 C 555.45 58.43 552.30 63.69 552.71 68.96 C 552.91 74.89 551.38 82.17 556.38 86.62 C 560.59 91.08 568.29 90.87 572.53 86.56 C 576.15 83.48 576.36 78.40 576.33 74.00 C 576.24 69.62 576.79 64.72 574.06 60.95 C 571.13 56.63 565.30 54.89 560.41 56.55 Z" />
<path fill="#020202" opacity="1.00" d=" M 602.41 49.22 C 605.21 47.59 608.13 48.63 610.27 50.81 C 613.77 49.70 617.23 48.07 620.99 48.27 C 629.42 48.11 637.54 54.45 639.17 62.77 C 640.57 70.40 639.00 78.22 640.05 85.87 C 640.94 89.54 645.43 89.45 648.21 90.89 C 650.11 92.68 648.94 95.37 647.98 97.31 C 641.25 98.56 634.01 94.28 632.51 87.49 C 631.20 80.07 632.61 72.47 631.79 65.01 C 630.94 59.55 625.39 55.44 619.94 55.94 C 614.35 56.19 609.71 61.46 609.63 66.96 C 609.31 75.94 609.64 84.93 609.55 93.92 C 609.96 96.87 605.56 98.55 603.53 96.64 C 601.42 95.19 602.24 92.22 601.96 90.05 C 602.27 76.45 601.47 62.80 602.41 49.22 Z" />
</g>
</svg>
