<?xml version="1.0" encoding="UTF-8"?>
<!DOCTYPE svg PUBLIC "-//W3C//DTD SVG 1.1//EN" "http://www.w3.org/Graphics/SVG/1.1/DTD/svg11.dtd"[]>
<svg width="620pt" height="418pt" viewBox="49 154 509 105" version="1.1" xmlns="http://www.w3.org/2000/svg">
  <g id="#607356ff">
  </g>
  <g id="#e0ac71ff">
    <path fill="#e0ac71" opacity="1.00" d=" M 70.12 167.07 C 73.02 163.48 78.61 164.42 81.72 167.23 C 88.36 172.95 93.25 180.48 96.55 188.56 C 106.52 191.84 117.42 191.83 127.40 188.58 C 130.83 180.29 135.88 172.47 142.89 166.76 C 145.98 164.27 151.16 163.73 153.88 167.05 C 156.45 170.02 155.58 174.46 153.30 177.32 C 147.61 184.31 139.82 189.32 131.55 192.75 C 128.29 202.71 128.27 213.56 131.54 223.52 C 139.89 227.16 147.97 232.12 153.62 239.39 C 156.68 243.07 155.90 249.66 150.96 251.23 C 145.09 252.96 140.61 247.81 137.15 243.89 C 132.76 239.23 130.26 233.31 127.14 227.85 C 117.96 224.41 107.60 224.50 98.25 227.27 C 96.32 227.53 95.86 229.61 95.03 231.05 C 91.86 238.02 87.23 244.39 81.36 249.34 C 78.22 252.03 72.66 252.66 69.95 249.06 C 67.46 246.02 68.53 241.65 70.78 238.81 C 76.46 231.87 84.28 227.04 92.45 223.52 C 95.61 213.57 95.62 202.69 92.43 192.74 C 84.13 189.35 76.39 184.27 70.67 177.30 C 68.37 174.46 67.54 170.02 70.12 167.07 M 74.02 169.78 C 74.16 171.46 74.03 173.37 75.35 174.65 C 79.21 179.12 84.09 182.61 89.25 185.41 C 86.53 180.44 83.21 175.73 79.01 171.90 C 77.68 170.57 75.75 170.28 74.02 169.78 M 146.60 170.71 C 141.46 174.45 137.82 179.92 134.73 185.40 C 140.39 182.17 146.24 178.44 149.80 172.85 C 151.02 170.49 148.35 169.25 146.60 170.71 M 98.54 194.69 C 100.58 203.53 100.58 212.81 98.51 221.64 C 107.34 219.47 116.63 219.45 125.45 221.64 C 123.41 212.80 123.41 203.51 125.45 194.67 C 116.63 196.83 107.37 196.78 98.54 194.69 M 74.26 243.26 C 73.19 245.29 74.69 247.02 76.80 245.91 C 82.34 242.29 86.05 236.47 89.30 230.83 C 83.73 234.13 77.87 237.74 74.26 243.26 M 134.71 230.88 C 137.99 236.48 141.64 242.33 147.20 245.90 C 149.81 247.32 150.81 244.46 149.34 242.58 C 145.56 237.53 140.13 233.97 134.71 230.88 Z" />
  </g>
  <g id="#ffffffff">
    <path fill="#ffffff" opacity="1.00" d=" M 373.44 166.42 C 377.34 163.69 383.49 164.91 385.81 169.14 C 387.89 172.37 388.16 176.29 388.05 180.03 C 388.21 190.66 385.78 201.22 381.57 210.95 C 384.49 216.96 388.50 222.30 392.73 227.44 C 394.39 229.52 391.90 231.28 390.31 232.27 C 384.94 228.58 381.73 222.73 378.32 217.35 C 375.29 222.63 371.66 227.53 367.54 232.00 C 366.04 231.63 364.22 231.55 363.49 229.94 C 363.04 227.84 364.81 226.40 365.91 224.90 C 369.54 220.64 372.60 215.92 375.08 210.91 C 370.39 200.26 368.15 188.56 368.54 176.93 C 368.85 173.06 370.03 168.70 373.44 166.42 M 374.28 177.84 C 374.11 186.44 375.47 195.08 378.32 203.20 C 381.35 194.51 382.84 185.21 382.11 176.01 C 381.82 173.73 380.78 170.72 378.03 170.65 C 375.03 171.51 374.50 175.18 374.28 177.84 Z" />
    <path fill="#ffffff" opacity="1.00" d=" M 426.51 166.48 C 430.18 163.83 435.90 164.69 438.51 168.46 C 441.76 172.91 441.39 178.71 441.18 183.93 C 440.75 193.28 438.40 202.45 434.73 211.03 C 437.23 215.74 440.02 220.34 443.51 224.40 C 444.76 226.10 446.82 227.72 446.25 230.09 C 445.39 231.97 442.50 232.48 441.23 230.80 C 437.40 226.81 434.43 222.09 431.50 217.43 C 427.91 222.68 424.98 228.94 419.26 232.22 C 417.66 231.12 415.62 229.35 417.23 227.33 C 421.35 222.21 425.35 216.95 428.27 211.03 C 423.51 200.02 421.11 187.94 421.83 175.94 C 422.21 172.41 423.51 168.64 426.51 166.48 M 427.64 176.12 C 426.99 185.25 428.44 194.50 431.51 203.11 C 434.37 195.09 435.72 186.54 435.52 178.03 C 435.44 175.52 434.88 172.72 432.86 171.02 C 429.67 169.62 427.88 173.58 427.64 176.12 Z" />
    <path fill="#ffffff" opacity="1.00" d=" M 401.29 181.11 C 405.61 178.98 406.92 185.43 405.20 188.19 C 403.94 190.16 400.09 189.53 400.05 187.01 C 400.05 185.05 399.30 182.37 401.29 181.11 Z" />
    <path fill="#ffffff" opacity="1.00" d=" M 454.26 181.17 C 459.27 178.34 460.61 187.69 457.00 189.19 C 452.46 190.49 451.76 183.50 454.26 181.17 Z" />
    <path fill="#ffffff" opacity="1.00" d=" M 185.50 208.96 C 185.28 201.25 192.34 194.46 200.00 194.70 C 206.22 194.49 212.40 198.92 213.96 204.98 C 214.36 207.37 211.38 208.85 209.42 207.70 C 207.66 205.45 206.57 202.41 203.71 201.28 C 198.67 198.68 191.82 202.45 191.35 208.11 C 191.18 211.90 190.94 215.76 191.56 219.52 C 192.76 224.44 198.73 227.52 203.37 225.33 C 206.38 224.22 207.92 221.26 209.21 218.55 C 211.20 218.53 213.80 218.35 214.04 220.98 C 212.81 227.30 206.35 232.03 199.97 231.79 C 194.92 231.85 189.89 229.05 187.42 224.61 C 184.52 219.92 185.68 214.18 185.50 208.96 Z" />
    <path fill="#ffffff" opacity="1.00" d=" M 223.13 207.04 C 223.89 199.88 230.92 194.21 238.06 194.71 C 244.83 194.70 251.01 200.23 251.96 206.89 C 252.71 212.17 251.83 217.53 252.40 222.82 C 253.00 225.65 256.28 225.73 258.43 226.73 C 260.57 228.05 259.41 231.89 256.88 231.77 C 253.36 232.20 250.41 229.97 248.07 227.64 C 245.21 229.91 241.84 231.86 238.07 231.80 C 230.80 232.26 223.66 226.44 223.09 219.10 C 222.90 215.08 222.86 211.05 223.13 207.04 M 234.26 201.14 C 227.67 203.52 228.58 211.48 228.75 217.09 C 228.48 222.39 233.75 226.88 238.93 225.93 C 242.39 225.26 245.55 222.56 246.14 218.99 C 246.72 215.06 246.77 210.99 246.04 207.07 C 244.93 202.15 238.91 198.99 234.26 201.14 Z" />
    <path fill="#ffffff" opacity="1.00" d=" M 272.35 195.42 C 278.80 193.75 287.28 194.70 291.07 200.86 C 292.59 202.89 291.74 206.19 288.97 206.45 C 286.26 205.60 285.48 202.17 282.78 201.28 C 279.35 200.14 275.13 199.91 272.07 202.10 C 270.14 203.40 269.79 206.70 271.98 207.94 C 276.38 210.71 281.96 210.10 286.54 212.48 C 289.89 213.98 292.87 217.15 292.79 221.02 C 293.04 226.38 288.22 230.59 283.25 231.42 C 278.61 232.17 273.57 231.96 269.35 229.75 C 266.42 228.10 263.75 224.89 264.30 221.34 C 264.84 219.57 267.22 219.25 268.61 220.16 C 270.18 221.96 271.12 224.64 273.68 225.29 C 276.79 226.27 280.28 226.36 283.39 225.34 C 285.38 224.62 287.71 222.56 286.80 220.23 C 285.04 217.18 281.13 216.73 278.02 216.01 C 273.38 215.18 268.01 213.89 265.55 209.43 C 262.83 203.91 266.49 196.86 272.35 195.42 Z" />
    <path fill="#ffffff" opacity="1.00" d=" M 300.53 206.82 C 301.50 199.94 308.04 194.44 314.99 194.70 C 321.87 194.50 328.36 199.94 329.32 206.76 C 329.97 212.13 328.96 217.58 329.81 222.93 C 330.30 225.36 333.03 225.60 334.92 226.39 C 337.57 226.77 337.40 231.15 334.91 231.69 C 331.23 232.37 327.91 230.14 325.44 227.66 C 322.46 229.99 318.95 231.97 315.04 231.79 C 307.69 232.14 300.94 225.93 300.38 218.65 C 300.14 214.72 300.01 210.73 300.53 206.82 M 311.33 201.25 C 308.03 202.73 305.94 206.27 306.02 209.86 C 306.07 214.38 305.05 219.88 308.70 223.37 C 312.10 227.15 318.67 226.78 321.75 222.79 C 324.87 218.90 323.55 213.53 323.71 208.95 C 323.78 202.95 316.68 198.54 311.33 201.25 Z" />
    <path fill="#ffffff" opacity="1.00" d=" M 400.10 196.97 C 400.12 193.88 405.61 193.95 405.62 197.07 C 406.10 205.72 405.38 214.41 405.92 223.05 C 406.24 225.65 409.22 225.92 411.25 226.30 C 412.52 227.94 413.11 230.70 410.71 231.68 C 405.56 232.65 400.11 228.38 400.05 223.10 C 399.99 214.39 399.88 205.67 400.10 196.97 Z" />
    <path fill="#ffffff" opacity="1.00" d=" M 454.26 195.19 C 455.72 194.04 458.96 194.87 458.68 197.08 C 459.08 205.69 458.30 214.35 459.01 222.94 C 459.21 225.39 462.06 225.63 463.81 226.48 C 466.34 226.80 466.09 231.26 463.69 231.65 C 458.60 232.62 453.50 228.33 453.17 223.24 C 452.75 215.49 453.13 207.72 452.97 199.97 C 453.13 198.39 452.70 196.21 454.26 195.19 Z" />
    <path fill="#ffffff" opacity="1.00" d=" M 473.44 205.09 C 475.37 198.13 482.97 193.47 490.08 194.89 C 495.67 195.81 500.58 200.35 501.73 205.94 C 502.56 211.50 501.40 217.19 502.32 222.74 C 502.99 226.45 507.94 225.15 509.44 228.03 C 509.74 229.67 508.80 231.90 506.86 231.77 C 503.35 232.16 500.38 229.98 497.98 227.71 C 494.85 230.18 491.04 232.12 486.95 231.79 C 480.02 231.77 473.63 225.99 473.00 219.08 C 472.58 214.44 472.42 209.67 473.44 205.09 M 484.29 201.11 C 481.46 202.26 479.04 204.88 478.84 208.02 C 478.64 211.65 478.58 215.30 478.89 218.93 C 479.64 223.74 485.10 227.13 489.76 225.70 C 493.23 224.82 496.01 221.62 496.19 218.01 C 496.32 214.38 496.47 210.71 496.00 207.10 C 494.90 202.17 488.94 199.02 484.29 201.11 Z" />
    <path fill="#ffffff" opacity="1.00" d=" M 515.88 197.06 C 516.25 193.57 520.64 194.55 521.97 196.88 C 524.52 195.75 527.17 194.54 530.04 194.70 C 536.59 194.49 542.69 199.62 543.85 206.03 C 544.80 211.59 543.82 217.27 544.40 222.86 C 545.05 225.67 548.32 225.73 550.47 226.73 C 552.57 228.12 551.35 231.91 548.84 231.78 C 543.05 232.26 537.86 226.80 538.47 221.05 C 537.88 214.95 540.44 207.32 535.44 202.54 C 531.01 198.24 522.90 201.12 521.78 207.06 C 520.99 214.57 521.92 222.17 521.37 229.70 C 520.91 232.82 515.45 232.33 515.83 229.02 C 515.72 218.37 515.61 207.70 515.88 197.06 Z" />
  </g>
</svg>