<?xml version="1.0" encoding="utf-8"?>
<!-- Generator: Adobe Illustrator 26.0.0, SVG Export Plug-In . SVG Version: 6.00 Build 0)  -->
<svg version="1.1" id="Camada_1" xmlns="http://www.w3.org/2000/svg" xmlns:xlink="http://www.w3.org/1999/xlink" x="0px" y="0px"
	 viewBox="0 0 1161 503" style="enable-background:new 0 0 1161 503;" xml:space="preserve">
<style type="text/css">
	.st0{fill:#FFFFFF;}
	.st1{fill:#FF0000;}
</style>
<g id="_x23_000000ff">
	<path class="st0" d="M1004.9,63.5c18.9-4.3,38.5-5.1,57.8-2.9c17.7,2,34.8,8.1,50.4,16.5c-3.7,10.3-8.1,20.2-12.5,30.2
		c-7.9-11.1-18.7-20.3-31.5-24.9c-17.9-6.5-38.5-6.2-55.6,2.5c-13.7,6.6-24.7,18-31.9,31.3c-9.3,17.1-12.7,37-12.2,56.3
		c0.4,17.9,5,36.3,15.5,51c9.1,13,23.1,22.2,38.6,25.6c18.3,3.9,37.2,0.8,55.2-3.6c-0.2-16.7,0.3-33.4,0.3-50
		c0-10,8.1-19.3,18.1-20.3c6-0.3,12.1,0,18.1-0.1c-0.3,27.2-0.3,54.3-0.1,81.5c-27,7.6-54.9,13.5-83.1,12.7
		c-27.2-0.7-55-8.1-76.6-25.2c-16.4-12.8-28-31.5-32.1-51.8c-3.4-16.7-2.5-34.2,1-50.8c4.1-18.9,13.4-36.8,27.4-50.2
		C966.1,77,985.2,68,1004.9,63.5z"/>
	<path class="st0" d="M267,85.4c0-11.3,9.4-21.5,20.6-22.8c9.5-1.4,19.8,3.2,24.3,11.7c25.8,48.8,51.8,97.5,77.6,146.2
		c27.3-50.8,54.5-101.8,81.8-152.7c2.3-5.2,9.4-7,14.1-4.1c3.1,1.6,4.9,5.2,4.8,8.6c0,64.7,0,129.4,0,194c-12.7,0-25.3,0-38,0
		c0-44.3,0-88.6,0-132.9c-21.6,41.2-43.2,82.4-64.8,123.6c-1.6,2.9-2.8,6.4-6.1,7.8c-4.5,2.3-10.7,0.5-13-4.2
		c-21.1-39.4-42.2-78.8-63.4-118.2c0,41.3,0,82.5,0,123.8c-12.7,0-25.3,0-38,0C267,206,267.1,145.7,267,85.4z"/>
	<path class="st0" d="M518.3,82.4c-0.2-10.1,8.5-19.1,18.6-19.1c15.3-0.3,30.6,0,45.9-0.1c10.5,0.2,21.1,0.1,31.3,3
		c13.8,3.9,26.5,13.2,32.7,26.3c5.4,11.8,5.9,25.4,3.2,37.9c-2.9,13.8-11.5,26.3-23.4,33.9c-16.2,10.4-36.1,12.7-55,12.1
		c-0.1-4.9,0-9.8,0-14.6c9.8,0.2,20-2.5,27.5-9.1c9.6-8.5,13.9-21.6,14.3-34.2c0-9.7-1.9-19.8-7.7-27.7
		c-4.7-6.4-11.9-10.6-19.6-11.9c-9.6-1.7-19.5-0.3-29.1,0.4c0,62.3,0,124.6,0,187c-12.8,0-25.6,0-38.5,0
		C518.3,204.9,518.3,143.6,518.3,82.4z"/>
	<path class="st0" d="M691.1,64.6c10.3-4.4,23.6-0.8,29.5,9c25.9,48.6,51.6,97.3,77.5,145.9c27.1-50.5,54.1-101.1,81.2-151.7
		c3-6.1,12.4-6.7,16.5-1.5c2.8,3.4,2.2,8,2.3,12c-0.1,62.2,0,124.4,0,186.5c-12.6,0-25.2,0-37.8,0c0-43.9,0-87.8,0-131.7
		c-22.2,42.1-44.2,84.3-66.4,126.4c-3,6.5-13.4,6.4-16.6,0.1c-21.1-39.1-42-78.4-63.1-117.5c0.1,40.9,0,81.8,0,122.7
		c-12.6,0-25.2,0-37.8,0c0-57.1,0-114.3,0-171.4c0-3.3-0.2-6.7,0.2-10C677.6,75.2,683.5,67.8,691.1,64.6z"/>
	<path class="st0" d="M577.3,311.7c7.8-4.8,15.6-9.7,23.3-14.6c2,2.8,4.1,5.5,6.2,8.2c-8.7,3-17.4,6-26.1,9
		C579.6,313.4,578.5,312.6,577.3,311.7z"/>
	<path class="st0" d="M851.6,311.8c7.8-4.9,15.6-9.8,23.4-14.7c2,2.7,4.1,5.5,6.1,8.2c-8.6,3-17.3,6-26,8.9
		C853.9,313.4,852.8,312.6,851.6,311.8z"/>
	<path class="st0" d="M898.6,297.4c4.5,0,9,0,13.5,0c0,10,0,20.1,0,30.1c4.2-4.8,10.3-8.1,16.8-7.9c7.2-0.3,14.4,3.4,18.1,9.7
		c4.1,6.5,4.8,14.7,3.5,22.2c-1.5,8.4-7.1,16.4-15.2,19.4c-4.1,1.6-8.7,1.7-13,0.9c-4.2-0.9-7.3-4-10.3-6.8c0,2.1,0.1,4.1,0.1,6.2
		c-4.5,0-9,0-13.5,0C898.5,346.6,898.6,322,898.6,297.4 M920,328.8c-5,2.5-7.3,8.2-7.9,13.5c-0.5,6.3-0.3,13.5,4.3,18.5
		c4,4.8,12.5,4.7,16.1-0.6c5-7.3,5.3-17.4,2.1-25.5C932.5,329,925.5,326,920,328.8z"/>
	<path class="st0" d="M962.6,297.4c4.5,0,9,0,13.5,0c0,24.6,0,49.2,0,73.8c-4.5,0-9,0-13.5,0C962.5,346.6,962.6,322,962.6,297.4z"/>
	<path class="st0" d="M364.1,298.7c4.8-2.6,11.7,0.9,11.3,6.7c0.7,6.2-7.3,10.2-12.1,6.5C358.6,308.9,359.1,301.1,364.1,298.7z"/>
	<path class="st0" d="M457.1,298.7c4.2-2.3,10.2-0.1,11.2,4.8c1.7,5.4-3.8,11.2-9.3,9.5C452.2,312,451,301.6,457.1,298.7z"/>
	<path class="st0" d="M663.2,299c4.5-2.8,11.5-0.2,11.9,5.4c1.1,5.5-4.6,10.4-9.9,8.6C658.9,311.5,657.8,302.2,663.2,299z"/>
	<path class="st0" d="M995.1,298.6c4.8-2.5,11.6,1,11.3,6.7c0.5,5.9-6.6,9.9-11.5,7C989.5,309.8,989.8,301,995.1,298.6z"/>
	<path class="st0" d="M268.6,300.9c5.4,0,10.7,0,16.1,0c7.2,17.1,14.4,34.2,21.7,51.2c7.5-17.1,15-34.2,22.5-51.2
		c5.2,0,10.3,0,15.5,0c0,23.4,0,46.8,0,70.3c-4.6,0-9.2,0-13.7,0c0.1-17.7-0.2-35.5,0.2-53.2c-6.7,18.1-15.2,35.4-22.6,53.1
		c-2.2,0-4.4,0.1-6.6,0.1c-7.3-17.8-15.6-35.2-22-53.4c-0.2,0-0.7,0.1-0.9,0.1c1.3,1.9,1,4.3,1.2,6.4c0,15.6,0,31.2,0,46.8
		c-3.7,0-7.5,0-11.2,0C268.5,347.7,268.6,324.3,268.6,300.9z"/>
	<path class="st0" d="M777.8,300.9c8.3,0,16.7-0.1,25,0c6.4,0.1,13.3,1.6,17.8,6.5c4.8,5,5.8,12.6,4.2,19.1
		c-1.8,7.5-8.1,13.3-15.2,15.8c-4.3,1.7-8.9,2-13.4,2.3c0-3,0-5.9,0-8.8c5.2-0.6,11.3-2.2,13.6-7.5c2.2-5.4,1.9-13.2-3.8-16.3
		c-4.4-2.1-9.5-1.5-14.3-1.8c0,20.3,0,40.5,0,60.8c-4.7,0-9.3,0-14,0C777.8,347.7,777.8,324.3,777.8,300.9z"/>
	<path class="st0" d="M528,308.7c4.4-1,8.8-1.9,13.2-2.9c0,5,0,10,0,15.1c4.4,0,8.8,0,13.2,0c0,2.3,0,4.7,0,7c-4.4,0-8.8,0-13.2,0
		c0.1,9.2-0.3,18.4,0.3,27.5c0.3,2.8,0.7,6.3,3.4,7.8c3.1,1.5,6.7,0.2,9.8-0.8c0.8,2.2,1.6,4.4,2.3,6.6c-4.9,2-10,3.5-15.3,3.1
		c-4.8-0.1-9.7-2.4-11.9-6.8c-1.5-3.4-1.8-7.3-1.8-11c0-8.8,0-17.7,0-26.5c-2.3,0-4.7,0-7,0c0-2.3,0-4.7,0-7c2.3,0,4.7,0,7,0
		C528,316.8,528,312.8,528,308.7z"/>
	<path class="st0" d="M403.8,327.2c6.4-7,17.2-9.6,26-5.8c5,2.2,7.8,7.7,8.1,13.1c0.9,12.2,0.3,24.5,0.5,36.7c-4.5,0-9,0-13.5,0
		c0-9.6,0-19.2,0-28.8c-0.2-3.8-0.1-8.2-3-11.1c-3.5-3.2-9-3-13-0.9c-4.1,2.4-5,7.6-5,12c-0.1,9.6,0,19.2,0,28.7
		c-4.5,0-9,0-13.5-0.1c0.1-16.7,0-33.4,0.1-50.2c4.5,0,9,0,13.5,0C403.8,323,403.8,325.1,403.8,327.2z"/>
	<path class="st0" d="M488.4,322.2c7.8-4.4,17.7-2.9,25.2,1.5c-1.3,2.2-2.7,4.4-4,6.5c-3.6-1.8-7.9-4-11.9-2
		c-2.6,1.1-3.6,4.7-1.5,6.7c4.8,5.8,12.4,8.9,16.7,15.3c3.6,5.9,1.8,14.4-4,18.2c-9,6.2-21.7,4.5-30-2c1.5-2.4,3-4.9,4.6-7.3
		c3.4,2.5,7,5.3,11.5,5c3.1,0.1,6.4-2.5,6.2-5.8c0.2-3.8-3.3-6.2-6-8.3c-4.7-3.8-10.9-6.9-12.8-13.1
		C480.5,331.4,483.3,325,488.4,322.2z"/>
	<path class="st0" d="M566.7,329.3c4.2-5.7,11-9.2,18.1-9.5c6.4-0.5,13.5,0.9,17.9,5.9c4.8,5.6,6,13.2,6,20.4
		c-3.3,1.9-7.2,1.4-10.8,1.4c-7.3,0-14.7-0.1-22,0c0.2,5.5,2.4,11.5,7.6,14.2c6.6,3.7,14.7,1.4,20.8-2.1c1.3,2.4,2.5,4.8,3.8,7.1
		c-8.2,4.6-18.1,7-27.4,4.7c-9-2.2-16.3-9.9-18.2-19C560.8,344.6,561.7,335.8,566.7,329.3 M580.4,329c-3.4,2.7-4.1,7.3-4.6,11.4
		c7,0.1,13.9,0.1,20.9,0c-0.5-3.7-0.6-7.8-3.2-10.6C590.2,326.1,584.2,326.2,580.4,329z"/>
	<path class="st0" d="M642.1,319.8c4.4-1,8.2,1.8,11.4,4.4c-1.6,3.3-3.3,6.5-5,9.7c-3.2-1.2-7-3.2-10.3-1.1c-4.2,2.6-4.6,8-5,12.4
		c-0.3,8.6,0,17.2-0.1,25.9c-4.5,0-9,0-13.5,0c0-16.8,0-33.5,0-50.3c4.5,0,9,0,13.5,0c0,2.8,0,5.6,0,8.3
		C635.3,325.5,637.6,321,642.1,319.8z"/>
	<path class="st0" d="M707.3,320.1c8.2-1.5,17.4,0.2,23.5,6.1c10.4,9.2,10.8,26.8,2,37.2c-10.1,12.2-31.7,11.7-41.1-1
		c-5.2-6.8-6.3-16-4.4-24.1C689.5,329,697.9,321.6,707.3,320.1 M709.1,327.8c-5.3,2.2-7.7,8.2-8.3,13.5c-0.6,6.3-0.3,13.2,3.3,18.7
		c3.2,5.1,11.1,6.3,15.5,2.2c4.1-3.7,5.2-9.6,5.5-14.9c0.2-5.6-0.4-11.7-4-16.2C718.4,327.6,713.3,326.3,709.1,327.8z"/>
	<path class="st0" d="M1024.1,328.7c9-10.4,25.5-11.7,37.1-5.1c-1.3,2.4-2.7,4.9-4.1,7.3c-6.4-2.9-14.8-3.6-20.2,1.7
		c-7.5,7.7-6.4,22.8,2.9,28.6c5.7,3.4,12.7,1.8,18.2-1.2c1.2,2.5,2.5,4.9,3.7,7.4c-7.7,4.6-17.2,6-25.9,3.7
		c-8.1-2.2-14.8-8.8-17.1-16.8C1016.5,345.6,1017.8,335.5,1024.1,328.7z"/>
	<path class="st0" d="M1089.3,319.9c7.7-1.1,16.2,0.5,22.1,5.9c12,10.2,11.4,31.4-1,41c-6.5,5.4-15.7,6.4-23.7,4.6
		c-9.1-2-16.7-9.8-18.5-19c-1.3-6.8-0.9-14.2,2.6-20.2C1074.5,325.5,1081.6,320.9,1089.3,319.9 M1090.1,327.8
		c-5.5,2-7.9,8.2-8.4,13.6c-0.5,6.7-0.4,14.4,4.2,19.8c3.6,4.5,11.2,4.7,15.2,0.5c3.9-4.1,4.7-10,4.9-15.4c0-5.2-0.7-10.8-3.9-15.1
		C1099.4,327.6,1094.3,326.2,1090.1,327.8z"/>
	<path class="st0" d="M361,320.9c4.5,0,9,0,13.5,0c0,16.7,0,33.5,0,50.2c-4.5,0-9,0-13.5,0C361,354.4,361.1,337.7,361,320.9z"/>
	<path class="st0" d="M454,320.9c4.5,0,9,0,13.5,0c0,16.7,0,33.5,0,50.2c-4.5,0-9,0-13.5,0C454,354.4,454,337.6,454,320.9z"/>
	<path class="st0" d="M660.8,320.9c4.5,0,9,0,13.5,0c0,16.8,0,33.5,0,50.2c-4.5,0-9,0-13.5,0C660.8,354.4,660.8,337.6,660.8,320.9z"
		/>
	<path class="st0" d="M835.6,320.9c4.5,0,9,0,13.5,0c0,10.5-0.1,21.1,0,31.6c0.1,3.7,1.3,8.1,5,9.7c4.4,1.7,10.4,0.9,13.3-3.2
		c2.2-3,2.4-7,2.5-10.6c0-9.2,0-18.3,0-27.5c4.5,0,9,0,13.5,0c0,16.8,0,33.5,0,50.3c-4.5,0-9,0-13.5,0c0-2.1,0-4.2,0-6.2
		c-3.8,3.6-8.5,6.7-13.9,7.2c-5.6,0.6-12.2-0.1-16.2-4.6c-3.6-3.7-4-9.2-4.2-14.1C835.5,342.5,835.6,331.7,835.6,320.9z"/>
	<path class="st0" d="M992,371.2c0-16.8,0-33.5,0-50.3c4.5,0,8.9,0,13.4,0c0.1,16.8,0,33.5,0,50.3C1001,371.2,996.5,371.2,992,371.2
		z"/>
	<path class="st0" d="M296.3,392.2c3,0,6,0,9,0c0,16.8,0,33.7,0,50.5c-3,0-6,0-9,0c0-1.6,0-3.2,0.1-4.7c-2.5,2.2-5.2,4.5-8.6,5.2
		c-5.8,1.3-12.2-1.2-15.3-6.4c-5.2-8.2-4.2-20.7,4-26.6c5.9-4.6,15.1-3.8,20,1.9C296.2,405.4,296.3,398.8,296.3,392.2 M284.1,413.7
		c-3.7,2.1-4.8,6.7-4.9,10.7c-0.1,4.4,0.9,9.3,4.5,12.2c3.2,2.3,8,1.1,10-2.2c3.2-5.1,3.5-12.1,0.6-17.5
		C292.5,413.4,287.7,411.8,284.1,413.7z"/>
	<path class="st0" d="M529.3,392.2c3,0,6,0,9,0c0,16.8,0,33.7,0,50.5c-3,0-6,0-9,0c0-1.6,0-3.2,0-4.7c-1.8,1.6-3.6,3.3-5.8,4.3
		c-5.8,2.6-13.4,1-17.2-4.2c-6.3-8.3-5.3-22.2,3.7-28.3c5.9-4,14.4-3.1,19.3,2.2C529.2,405.3,529.3,398.7,529.3,392.2 M517.2,413.8
		c-3.7,2.1-4.8,6.7-4.9,10.6c0,4.5,1,9.8,5,12.4c3.4,2.2,8.1,0.4,9.9-3c2.7-4.7,2.9-10.8,0.8-15.8
		C526.4,413.9,521.2,411.4,517.2,413.8z"/>
	<path class="st0" d="M632.8,392.2c3,0,6,0,9,0c0,16.8,0,33.7,0,50.5c-3,0-6,0-9,0c0-1.6,0-3.1,0-4.7c-2.8,2.5-6,5-9.9,5.4
		c-5.8,0.9-11.9-2.2-14.6-7.5c-4.2-7.9-3.4-19.2,3.8-25.2c5.9-5.1,15.7-4.6,20.7,1.5C632.8,405.5,632.8,398.8,632.8,392.2
		 M621,413.6c-3.6,1.7-5,6-5.2,9.8c-0.2,4.6,0.4,9.8,4.1,13c3.1,2.6,8.1,1.6,10.2-1.7c3.1-4.8,3.5-11.3,1.3-16.6
		C629.8,414,624.9,411.6,621,413.6z"/>
	<path class="st0" d="M774,392.7c4-1.9,8.7,2.1,7.3,6.3c-0.9,4-6.8,5.4-9.3,2.1C769.7,398.6,770.7,393.8,774,392.7z"/>
	<path class="st0" d="M1076.1,392.8c2.9-1.3,7,0.4,7.4,3.8c0.9,3.7-2.8,7.5-6.6,6.3C1072.1,402,1071.5,394.3,1076.1,392.8z"/>
	<path class="st0" d="M925.2,400.7c9.2-8.4,23.7-9.2,34.5-3.4c-1.1,2-2.2,3.9-3.2,5.9c-6.6-3.2-15-3.8-21.2,0.6
		c-9.6,6.8-9.1,23.2,0.4,29.8c4.5,3.2,10.3,3.2,15.4,1.8c0-5,0-10,0-15c3.3,0,6.7,0,10,0c0,6.7,0,13.4,0,20.1
		c-9,2.8-19.2,4.5-28.2,0.8c-8.4-3.3-14.9-11.6-15.1-20.8C917.1,413.2,919.7,405.6,925.2,400.7z"/>
	<path class="st0" d="M375.6,394.4c8.8,0,17.5,0,26.2,0c0,2.2,0,4.5,0,6.8c-5.4,0-10.8,0-16.2,0c0,4.2,0,8.5,0,12.7
		c5.2,0,10.5,0,15.7,0c0,2.2,0,4.5,0,6.8c-5.2,0-10.5,0-15.7,0c0,5.1,0,10.2,0,15.2c6.3,0,12.7,0,19,0c0,2.2,0,4.5,0,6.7
		c-9.7,0-19.3,0-29,0C375.5,426.6,375.6,410.5,375.6,394.4z"/>
	<path class="st0" d="M708,394.4c3.8,0,7.6-0.1,11.4,0.1c4.8,11.7,9.8,23.3,14.7,34.9c5-11.7,10.3-23.2,15.2-34.9
		c3.7-0.2,7.3-0.1,11-0.1c0,16.1,0,32.2,0,48.2c-3.2,0-6.5,0-9.7,0c0-12.1-0.2-24.1,0.3-36.2c-4.7,12.3-10.3,24.2-15.6,36.3
		c-1.5,0-2.9-0.1-4.4-0.1c-5-12.2-10.7-24-15-36.5c0.5,12.2,0.2,24.3,0.3,36.5c-2.7,0-5.3,0-8,0C708,426.6,708,410.5,708,394.4z"/>
	<path class="st0" d="M442.3,399.7c3.1-0.7,6.1-1.4,9.2-2c0,3.5,0.1,6.9,0.1,10.4c3,0,6,0,9,0c0,1.6,0,3.2,0,4.8c-3,0-6,0-9,0
		c0.4,7.4-0.8,14.9,0.7,22.1c1.3,3.6,5.6,2.6,8.4,1.7c0.5,1.5,1.1,3,1.6,4.6c-5,1.9-11,3.4-16,0.5c-3.3-1.8-4-6-4-9.4
		c0-6.5,0-13,0-19.4c-1.7,0-3.3,0-5,0c0-1.6,0-3.2,0-4.7c1.7,0,3.3,0,5,0C442.3,405.3,442.3,402.5,442.3,399.7z"/>
	<path class="st0" d="M326.1,407.8c5.9-1.5,12.8-0.3,17.3,3.9c7.7,6.9,7.5,20.4-0.1,27.3c-7.8,7.1-22.1,5.6-27.7-3.6
		c-4-6.8-3.7-16.4,1.7-22.4C319.7,410.4,322.8,408.6,326.1,407.8 M329.1,412.8c-4,1.2-5.8,5.7-6.2,9.5c-0.4,4.7-0.1,10.1,3.3,13.8
		c3,3.2,8.8,2.4,11-1.4c2.8-4.8,2.9-10.9,1.4-16.1C337.5,414.6,333.2,411.4,329.1,412.8z"/>
	<path class="st0" d="M414.7,409.3c5.5-3.4,12.5-2.4,17.9,0.8c-0.9,1.5-1.9,3-2.8,4.5c-2.7-1.4-5.8-2.3-8.8-1.2
		c-0.5,1.1-0.9,2.1-1.4,3.2c3.3,4.5,8.5,6.9,12,11.2c3.1,4,1.8,10.4-2.4,13.1c-6.2,4.3-14.8,2.9-20.6-1.3c1-1.7,2.1-3.4,3.1-5.1
		c2.7,1.7,5.7,4.1,9,3.2c2.5-0.5,4-3.5,2.7-5.8c-3.1-4.2-8.6-6.1-11.5-10.5C409.3,417.4,410.6,411.6,414.7,409.3z"/>
	<path class="st0" d="M467,411.9c5.9-4.4,13.9-6.1,20.9-3.5c3.7,1.3,6.4,5,6.7,8.9c0.9,8.4-0.7,17.1,1.5,25.4c-3.3,0-6.6,0-9.9-0.1
		c-0.2-1.4-0.5-2.8-0.7-4.1c-4,4.2-10.9,6.7-16.2,3.5c-5.5-3.2-6.2-11.5-1.9-15.9c4.8-5,12.1-5.9,18.5-7.6c-1.1-2-2-4.6-4.5-5.4
		c-4.1-1.5-8.1,1.1-11.3,3.3C469,414.9,468,413.4,467,411.9 M475,428.5c-2.2,2.1-1.9,6.3,0.8,7.9c2.9,1.6,6.6-0.2,8.2-2.8
		c1.8-2.9,1.6-6.4,1.9-9.6C482.1,425,477.8,425.6,475,428.5z"/>
	<path class="st0" d="M558.3,408c5.9-1.8,12.9-0.9,17.7,3.2c8.3,6.7,8.3,20.9,0.4,27.8c-8.1,7.4-23.4,5.3-28.2-5
		C543,424.6,547.4,411,558.3,408 M562,412.8c-3.9,1.4-5.7,5.6-6.1,9.5c-0.4,4.3-0.1,9.1,2.3,12.8c2,3,6.3,4,9.4,2.2
		c2.7-1.5,3.8-4.6,4.4-7.3c0.8-4.4,0.7-9.3-1.4-13.4C569.1,413.5,565.3,411.6,562,412.8z"/>
	<path class="st0" d="M652.6,414.2c4.9-7.1,15.8-9.2,23-4.6c5.1,3.5,5.9,10.2,6.2,15.9c-7.4,2-15.2,0.4-22.8,1
		c0.6,3.6,1.8,7.6,5.3,9.5c4.6,2.7,10.1,1,14.4-1.3c0.9,1.6,1.8,3.3,2.7,5c-7,3.8-16,5.7-23.2,1.4
		C649.1,435.8,646.8,422.6,652.6,414.2 M660.9,415.4c-1.1,1.8-1.3,4-1.9,6c4.8,0,9.6,0,14.4,0c-0.4-2.3-0.5-4.8-1.9-6.7
		C669.1,411.2,663.1,411.8,660.9,415.4z"/>
	<path class="st0" d="M800.8,412.4c4.6-4.9,12.5-7,18.6-3.6c3.7,2,4.9,6.4,5,10.2c0.4,7.9,0.1,15.8,0.2,23.6c-3.1,0-6.2,0-9.2,0
		c-0.3-8.1,0.6-16.2-0.5-24.2c-0.8-5.6-9-6.2-12.1-2.2c-1.8,2.3-1.6,5.4-1.8,8.2c-0.1,6.1,0,12.2,0,18.3c-3.1,0-6.2,0-9.2,0
		c0-11.5,0-23,0-34.5c3.1,0,6.2,0,9.3,0C800.8,409.5,800.8,411,800.8,412.4z"/>
	<path class="st0" d="M834.3,411.9c5.8-4.5,13.7-6.1,20.7-3.6c3.8,1.4,6.6,5,6.9,9.1c0.8,8.4-0.7,17,1.5,25.3c-3.3,0-6.6,0-9.8,0
		c-0.3-1.4-0.6-2.8-0.8-4.2c-3.1,3.2-7.4,5.5-12,4.8c-4.9-0.4-9.1-5-8.7-10c-0.2-3.1,1.2-6.2,3.6-8.2c4.9-4.2,11.5-5.2,17.6-6.7
		c-1.1-2.1-2.2-4.8-4.8-5.5c-4-1.3-7.8,1.2-11,3.4C836.3,414.9,835.3,413.4,834.3,411.9 M842.6,428.2c-2.4,2.1-2.2,6.3,0.4,8.1
		c2.6,1.7,6,0.2,7.8-1.9c2.3-2.9,2.2-6.9,2.3-10.5C849.5,425,845.4,425.6,842.6,428.2z"/>
	<path class="st0" d="M871.4,413.8c1.3-4,5.5-6.2,9.5-6.6c4.2-0.6,8.3,0.9,12.1,2.7c-0.9,1.5-1.9,3-2.8,4.6c-2.5-1-5.2-2.6-8-1.4
		c-1.1,0.9-1.6,2.2-2.4,3.3c3.1,4.3,8,6.7,11.6,10.6c3.7,4,2.7,11.2-2,14.1c-6.2,4-14.7,2.8-20.5-1.5c1-1.7,2.1-3.4,3.1-5
		c2.8,1.8,6.1,4.4,9.7,3c2.9-0.9,3.2-5,1.1-6.9c-3.2-3.1-7.4-5.1-10.2-8.7C870.8,419.6,870.7,416.5,871.4,413.8z"/>
	<path class="st0" d="M970.6,415.2c4.6-7.9,16.3-10.5,23.8-5.5c5,3.6,5.7,10.2,6,15.9c-7.5,1.7-15.2,0.3-22.8,0.8
		c0.6,3.7,1.8,7.9,5.5,9.6c4.5,2.6,9.9,0.7,14.2-1.5c0.9,1.6,1.8,3.3,2.7,4.9c-6.9,3.8-15.8,5.6-23,1.6
		C968.2,436.3,965.5,423.7,970.6,415.2 M980.6,414.1c-2,1.9-2.3,4.7-2.9,7.2c4.8,0.1,9.6,0.1,14.4,0.1c-0.5-2.4-0.5-5.2-2.2-7.1
		C987.6,411.6,983.1,411.8,980.6,414.1z"/>
	<path class="st0" d="M1017.5,413.3c1.8-2.6,3.7-5.9,7.2-6.2c2.6,0.2,4.7,1.8,6.8,3.1c-1.2,2.3-2.3,4.6-3.4,6.8
		c-2.1-0.5-4.4-2-6.6-1c-2.9,1.2-3.8,4.5-3.9,7.3c-0.3,6.4,0,12.8-0.1,19.2c-3.2,0-6.3,0-9.5,0c0-11.5,0-23,0-34.5
		c3.2,0,6.3,0,9.5,0C1017.5,409.9,1017.5,411.6,1017.5,413.3z"/>
	<path class="st0" d="M1035.2,411.9c5.8-4.4,13.7-6.1,20.7-3.6c3.8,1.3,6.5,5,6.9,9c0.9,8.4-0.7,17.1,1.5,25.4c-3.3,0-6.5,0-9.8,0
		c-0.3-1.4-0.5-2.8-0.7-4.1c-4.1,4.5-11.7,6.9-16.9,3c-5.1-3.5-5.2-11.7-0.7-15.8c4.8-4.7,11.9-5.6,18.1-7.2
		c-1.2-2.1-2.2-4.8-4.8-5.4c-4.1-1.3-7.9,1.2-11.1,3.4C1037.3,414.9,1036.2,413.4,1035.2,411.9 M1043,428.8c-2,2.2-1.5,6,1,7.6
		c2.6,1.6,5.9,0.1,7.8-2c2.4-2.8,2.1-6.9,2.4-10.4C1050.3,425,1045.9,425.6,1043,428.8z"/>
	<path class="st0" d="M1096.7,409.3c5.5-3.4,12.6-2.4,17.9,0.8c-0.9,1.5-1.9,3-2.8,4.5c-2.8-1.3-5.8-2.3-8.8-1.2
		c-0.5,1.1-0.9,2.1-1.4,3.2c3.3,4.4,8.5,6.9,12,11.2c3,4.1,1.8,10.3-2.4,13.1c-6.2,4.3-14.8,2.9-20.7-1.3c1-1.7,2.1-3.4,3.1-5.1
		c2.7,1.7,5.7,4.1,9.1,3.2c2.5-0.5,4-3.6,2.6-5.8c-3.1-4.3-8.6-6-11.5-10.4C1091.3,417.4,1092.6,411.6,1096.7,409.3z"/>
	<path class="st0" d="M771.6,408.2c3.1,0,6.2,0,9.2,0c0,11.5,0,23,0,34.5c-3.1,0-6.2,0-9.2,0C771.5,431.2,771.6,419.6,771.6,408.2z"
		/>
	<path class="st0" d="M1073.6,408.2c3.2,0,6.3,0,9.5,0c0,11.5,0,23,0,34.5c-3.2,0-6.3,0-9.5,0
		C1073.6,431.2,1073.5,419.6,1073.6,408.2z"/>
</g>
<g id="_x23_ff0000ff">
	<path class="st1" d="M111.6,192.2c41.8-41.2,83.1-83,124.7-124.4c0,35.9,0,71.8,0,107.7c-0.5,29.7-0.1,59.5-0.3,89.2
		c-11.6-15.8-28.8-27-47.6-32.1c-29.1-8.3-60.3-4.8-88.8,4.4c-28.1,9.1-54,24.4-76.2,43.7c2.5-3,5.4-5.7,8.1-8.4
		C58.3,245.5,85,218.9,111.6,192.2z"/>
</g>
</svg>
