<?xml version="1.0" encoding="UTF-8" ?>
<!DOCTYPE svg PUBLIC "-//W3C//DTD SVG 1.1//EN" "http://www.w3.org/Graphics/SVG/1.1/DTD/svg11.dtd">
<svg width="200pt" height="30pt" viewBox="0 0 200 30" version="1.1" xmlns="http://www.w3.org/2000/svg">
<g id="#ffffffff">
</g>
<g id="#000000ff">
<path fill="#000000" opacity="1.00" d=" M 138.49 6.44 C 143.28 3.35 149.57 3.64 154.64 5.92 C 154.37 6.73 153.84 8.35 153.58 9.17 C 151.21 7.24 148.27 5.39 145.07 6.43 C 138.30 8.48 136.89 18.60 141.68 23.28 C 144.10 25.68 147.74 24.84 150.79 24.70 C 150.84 22.53 150.71 20.36 150.96 18.20 C 151.68 16.65 153.42 16.78 154.84 16.60 C 154.83 19.65 154.81 22.69 154.84 25.73 C 149.21 27.30 142.50 28.21 137.53 24.46 C 131.73 20.17 132.59 10.25 138.49 6.44 Z" />
<path fill="#000000" opacity="1.00" d=" M 63.21 5.09 C 64.29 3.97 66.47 4.38 67.07 5.85 C 70.10 11.04 72.66 16.49 75.65 21.70 C 78.80 15.99 81.66 10.10 85.02 4.51 C 87.20 4.00 86.53 6.81 86.69 8.01 C 86.66 14.27 86.65 20.52 86.68 26.77 C 85.27 26.78 83.86 26.79 82.45 26.80 C 82.44 21.98 82.50 17.16 82.44 12.34 C 79.82 17.26 77.33 22.25 74.61 27.12 C 70.81 23.36 69.29 17.84 66.48 13.34 C 66.28 17.83 66.42 22.32 66.39 26.80 C 65.01 26.79 63.63 26.78 62.25 26.77 C 62.29 20.83 62.28 14.89 62.25 8.96 C 62.44 7.70 61.86 5.88 63.21 5.09 Z" />
<path fill="#000000" opacity="1.00" d=" M 89.78 5.92 C 90.79 3.95 93.20 4.74 94.98 4.54 C 97.56 4.61 100.60 4.33 102.60 6.31 C 105.16 8.59 104.70 13.09 102.10 15.14 C 100.45 16.79 97.99 16.71 95.86 17.14 C 95.68 16.81 95.32 16.15 95.14 15.82 C 98.30 15.28 101.03 12.38 99.85 9.05 C 99.43 6.18 96.18 6.11 93.93 6.13 C 93.81 13.00 93.87 19.88 93.90 26.76 C 92.48 26.77 91.07 26.78 89.65 26.79 C 89.77 19.83 89.49 12.87 89.78 5.92 Z" />
<path fill="#000000" opacity="1.00" d=" M 106.96 6.84 C 107.12 4.31 110.92 3.64 111.89 6.00 C 114.77 11.16 117.37 16.48 120.26 21.64 C 123.50 15.78 126.32 9.66 129.95 4.02 C 131.69 5.15 131.10 7.31 131.24 9.01 C 131.21 14.89 131.21 20.76 131.24 26.64 C 129.84 26.65 128.45 26.66 127.06 26.65 C 127.11 21.90 127.11 17.14 127.09 12.39 C 124.17 17.21 122.00 22.44 118.95 27.18 C 115.83 22.87 113.80 17.92 111.14 13.33 C 111.09 17.77 111.14 22.21 111.14 26.65 C 109.71 26.65 108.29 26.65 106.87 26.65 C 106.96 20.04 106.72 13.43 106.96 6.84 Z" />
</g>
<g id="#ed1c24ff">
<path fill="#ed1c24" opacity="1.00" d=" M 36.86 27.06 C 44.14 19.65 51.54 12.35 58.90 5.01 C 58.87 12.08 58.75 19.16 58.91 26.23 C 52.88 19.87 43.16 22.63 36.86 27.06 Z" />
</g>
</svg>
